<?xml version="1.0" standalone="no"?>
<!DOCTYPE svg PUBLIC "-//W3C//DTD SVG 20010904//EN"
 "http://www.w3.org/TR/2001/REC-SVG-20010904/DTD/svg10.dtd">
<svg version="1.0" xmlns="http://www.w3.org/2000/svg"
 width="1432.000000pt" height="1432.000000pt" viewBox="0 0 1432.000000 1432.000000"
 preserveAspectRatio="xMidYMid meet">
<metadata>
Created by potrace 1.11, written by Peter Selinger 2001-2013
</metadata>
<g transform="translate(0.000000,1432.000000) scale(0.100000,-0.100000)"
fill="#000000" stroke="none">
<path d="M6805 9929 c-1541 -88 -3088 -625 -4655 -1617 -526 -334 -1150 -801
-1480 -1109 l-45 -43 50 -47 c100 -95 258 -227 465 -389 1000 -785 2110 -1412
3211 -1814 954 -349 1869 -521 2779 -523 317 -1 439 4 700 29 1451 136 2951
694 4422 1645 508 328 1087 766 1398 1056 l45 43 -50 47 c-64 61 -147 133
-295 254 -990 811 -2210 1519 -3329 1931 -799 294 -1524 458 -2316 523 -211
18 -699 25 -900 14z m671 -713 c450 -75 840 -274 1153 -589 349 -349 559 -800
602 -1292 11 -119 8 -334 -6 -425 -18 -120 -29 -176 -51 -262 -178 -706 -732
-1280 -1432 -1484 -730 -212 -1515 -10 -2051 529 -440 441 -662 1058 -601
1668 58 575 359 1112 815 1453 333 250 644 369 1095 420 73 8 389 -4 476 -18z"/>
</g>
</svg>
